<svg width="32" height="32" viewBox="0 0 32 32" fill="none" xmlns="http://www.w3.org/2000/svg">
<path fill-rule="evenodd" clip-rule="evenodd" d="M30.2894 7.66946C30.3428 8.53562 30.2872 9.36933 30.1229 10.1706C27.2258 7.87668 24.1185 7.57099 20.8011 9.25351C17.7417 11.554 16.6597 14.5831 17.5551 18.341C18.292 20.8848 19.8734 22.6634 22.2992 23.6767C18.1091 23.7319 13.9475 23.6764 9.81467 23.51C13.4695 21.8047 15.1064 18.9146 14.7253 14.8394C13.4858 9.67343 10.2398 7.53356 4.98731 8.4198C3.78859 8.763 2.73433 9.3466 1.82455 10.1706C1.5316 8.4385 1.89227 6.88223 2.90655 5.50181C3.93238 4.30753 5.01437 3.16813 6.15253 2.08359C6.63039 1.76102 7.12978 1.48311 7.65068 1.24988C13.1994 1.13871 18.7481 1.13871 24.2968 1.24988C27.0101 2.71731 29.0076 4.85716 30.2894 7.66946Z" fill="#131313"/>
<path fill-rule="evenodd" clip-rule="evenodd" d="M1.82453 10.1706C2.73431 9.34658 3.78857 8.76298 4.98729 8.41977C10.2398 7.53354 13.4858 9.67341 14.7253 14.8394C15.1064 18.9145 13.4695 21.8047 9.81466 23.51C9.5395 23.5366 9.31755 23.6477 9.14881 23.8434C7.81712 24.0657 6.48544 24.0657 5.15375 23.8434C3.80249 23.4021 2.60953 22.6794 1.57484 21.6758C-0.524947 17.0003 -0.524947 12.3315 1.57484 7.66943C1.59871 8.6295 1.68194 9.46321 1.82453 10.1706Z" fill="#FAF9F9"/>
<path fill-rule="evenodd" clip-rule="evenodd" d="M30.6222 8.00293C31.9662 11.2171 32.327 14.5519 31.7042 18.0075C31.392 19.2794 30.948 20.5023 30.3726 21.6758C29.2997 22.7264 28.0513 23.4491 26.6272 23.8435C25.3529 24.0512 24.0768 24.0512 22.7986 23.8435C22.6806 23.6927 22.5141 23.6372 22.2992 23.6767C19.8734 22.6634 18.292 20.8848 17.5551 18.341C16.6597 14.5831 17.7417 11.5539 20.8011 9.2535C24.1184 7.57098 27.2258 7.87667 30.1229 10.1706C30.1328 10.2611 30.1883 10.3167 30.2893 10.3373C30.4004 9.53417 30.5114 8.75604 30.6222 8.00293Z" fill="#FAFAFA"/>
<path fill-rule="evenodd" clip-rule="evenodd" d="M5.65314 11.0043C9.84881 10.9546 11.7631 13.011 11.396 17.1738C10.593 20.1958 8.62324 21.5021 5.48668 21.0922C2.97387 20.2572 1.69767 18.5064 1.65808 15.8398C1.91809 13.3035 3.24978 11.6917 5.65314 11.0043Z" fill="#161616"/>
<path fill-rule="evenodd" clip-rule="evenodd" d="M24.4632 11.0042C28.6484 10.9444 30.5627 13.0009 30.2061 17.1737C29.7716 19.443 28.4121 20.7491 26.1278 21.0921C23.0283 21.3235 21.1694 19.9062 20.5514 16.8402C20.2834 13.8162 21.5872 11.8709 24.4632 11.0042Z" fill="#161515"/>
<path fill-rule="evenodd" clip-rule="evenodd" d="M5.65309 12.8388C8.7346 12.6739 10.1495 14.119 9.89785 17.1741C8.938 19.2523 7.35662 19.9471 5.15371 19.2584C3.44271 18.2466 2.86009 16.7738 3.40587 14.8398C3.88028 13.8417 4.62936 13.1747 5.65309 12.8388Z" fill="#EA3D5A"/>
<path fill-rule="evenodd" clip-rule="evenodd" d="M24.4632 12.8388C27.9692 12.8096 29.2731 14.477 28.3751 17.841C27.2598 19.3559 25.7893 19.8283 23.9639 19.2583C22.0863 18.135 21.5593 16.5509 22.3825 14.5062C22.9137 13.7286 23.6073 13.1728 24.4632 12.8388Z" fill="#EB3D5B"/>
<path fill-rule="evenodd" clip-rule="evenodd" d="M5.98605 14.0059C8.33082 14.1457 9.07989 15.3129 8.23327 17.5074C7.37322 18.4245 6.4022 18.5634 5.32021 17.9243C4.6903 17.1138 4.49611 16.1967 4.73759 15.1731C5.07296 14.6876 5.48911 14.2985 5.98605 14.0059Z" fill="#171414"/>
<path fill-rule="evenodd" clip-rule="evenodd" d="M24.7962 14.0059C26.6554 13.9504 27.5155 14.8397 27.3763 16.6737C26.7481 18.2808 25.6661 18.6977 24.1303 17.9243C22.8661 16.3539 23.088 15.0478 24.7962 14.0059Z" fill="#191415"/>
<path fill-rule="evenodd" clip-rule="evenodd" d="M9.81465 23.5103C13.9475 23.6766 18.1091 23.7321 22.2992 23.6769C22.5141 23.6374 22.6806 23.6929 22.7986 23.8436C18.2487 23.8436 13.6987 23.8436 9.1488 23.8436C9.31755 23.6479 9.53949 23.5369 9.81465 23.5103Z" fill="#2D1A1D"/>
<path fill-rule="evenodd" clip-rule="evenodd" d="M5.15369 23.8435C6.48538 24.0658 7.81707 24.0658 9.14876 23.8435C13.6987 23.8435 18.2487 23.8435 22.7986 23.8435C24.0768 24.0513 25.3529 24.0513 26.6272 23.8435C27.4668 23.789 28.2991 23.8445 29.1241 24.0102C25.2778 29.0193 20.1731 31.2704 13.8097 30.7633C9.18733 30.0058 5.52519 27.7271 2.82324 23.9269C3.59808 23.8437 4.37491 23.8158 5.15369 23.8435Z" fill="#F13E5D"/>
</svg>

