<svg width="32" height="32" viewBox="0 0 32 32" fill="none" xmlns="http://www.w3.org/2000/svg">
    <g clip-path="url(#clip0_4135_255)">
        <path fill-rule="evenodd" clip-rule="evenodd"
            d="M-0.0799866 -0.0800781C10.5867 -0.0800781 21.2533 -0.0800781 31.92 -0.0800781C31.92 10.5866 31.92 21.2532 31.92 31.9199C21.2533 31.9199 10.5867 31.9199 -0.0799866 31.9199C-0.0799866 21.2532 -0.0799866 10.5866 -0.0799866 -0.0800781Z"
            fill="#FDFDFD" />
        <path fill-rule="evenodd" clip-rule="evenodd"
            d="M15.28 3.59983C15.7199 3.56366 16.1465 3.61699 16.56 3.75983C16.7192 4.60657 16.7725 5.4599 16.72 6.31983C17.2609 6.31335 17.7942 6.3667 18.32 6.47983C17.5414 8.41377 16.7147 10.3338 15.84 12.2398C15.0133 10.3732 14.1867 8.50651 13.36 6.63983C13.444 6.52905 13.5507 6.44905 13.68 6.39983C14.1033 6.32025 14.53 6.29358 14.96 6.31983C14.8727 5.36572 14.9794 4.45905 15.28 3.59983Z"
            fill="#1D252D" />
        <path fill-rule="evenodd" clip-rule="evenodd"
            d="M7.59999 6.79999C7.76831 6.77607 7.92831 6.80274 8.07999 6.87999C8.58911 7.41587 9.12245 7.92255 9.67999 8.39999C9.97736 8.1292 10.2974 7.8892 10.64 7.67999C10.8216 7.56008 10.9816 7.58675 11.12 7.75999C11.8517 9.60911 12.5984 11.4491 13.36 13.28C11.369 12.6333 9.39568 11.8866 7.43999 11.04C7.74032 10.5726 8.06032 10.1193 8.39999 9.67999C7.83469 9.08847 7.30135 8.47512 6.79999 7.83999C6.92528 7.36994 7.19194 7.02327 7.59999 6.79999Z"
            fill="#1D242D" />
        <path fill-rule="evenodd" clip-rule="evenodd"
            d="M23.76 6.7998C24.3474 6.93244 24.7741 7.27912 25.04 7.8398C24.5386 8.47494 24.0053 9.08828 23.44 9.6798C23.7067 10.1065 23.9733 10.5331 24.24 10.9598C22.3429 11.7435 20.4496 12.5435 18.56 13.3598C19.1102 11.3522 19.8837 9.43217 20.88 7.5998C21.3067 7.86648 21.7333 8.13313 22.16 8.3998C22.7501 7.91644 23.2834 7.3831 23.76 6.7998Z"
            fill="#1D242D" />
        <path fill-rule="evenodd" clip-rule="evenodd"
            d="M6.16001 16.88C5.32293 16.7664 4.46959 16.6597 3.60001 16.56C3.60001 16.08 3.60001 15.6 3.60001 15.12C4.45333 15.12 5.30668 15.12 6.16001 15.12C6.1362 14.6228 6.2162 14.1428 6.40001 13.68C6.48981 13.5965 6.59649 13.5432 6.72001 13.52C8.53225 14.2747 10.3189 15.0747 12.08 15.92C10.3189 16.7653 8.53225 17.5653 6.72001 18.32C6.59649 18.2968 6.48981 18.2435 6.40001 18.16C6.37074 17.7016 6.29074 17.2751 6.16001 16.88Z"
            fill="#1C242C" />
        <path fill-rule="evenodd" clip-rule="evenodd"
            d="M28.08 16.72C27.1566 16.6219 26.3034 16.7287 25.52 17.04C25.508 17.473 25.4547 17.8997 25.36 18.32C23.3923 17.6459 21.4723 16.8459 19.6 15.92C21.4752 14.9933 23.3952 14.1933 25.36 13.52C25.4731 14.0458 25.5264 14.5791 25.52 15.12C26.375 15.0935 27.2283 15.1201 28.08 15.2C28.2867 15.7065 28.2867 16.2131 28.08 16.72Z"
            fill="#1D252D" />
        <path fill-rule="evenodd" clip-rule="evenodd"
            d="M18.48 18.48C20.4267 19.2177 22.3467 20.0177 24.24 20.88C23.9733 21.3067 23.7067 21.7333 23.44 22.16C23.9733 22.7467 24.5067 23.3333 25.04 23.92C24.8082 24.556 24.3815 24.9025 23.76 24.96C23.2509 24.4241 22.7176 23.9174 22.16 23.44C21.7333 23.7067 21.3067 23.9733 20.88 24.24C19.9555 22.3734 19.1555 20.4534 18.48 18.48Z"
            fill="#1D242D" />
        <path fill-rule="evenodd" clip-rule="evenodd"
            d="M12.72 18.4802C12.908 18.4451 13.068 18.4984 13.2 18.6402C12.2929 20.8818 11.3863 23.1218 10.48 25.3602C9.95719 25.0592 9.45053 24.7392 8.96 24.4002C8.24722 24.9525 7.58055 25.5659 6.96 26.2402C6.02667 26.1602 5.52 25.6534 5.44 24.7202C6.08735 24.1243 6.70069 23.4843 7.28 22.8002C6.89637 22.3088 6.57637 21.7754 6.32 21.2002C8.46789 20.2899 10.6012 19.3832 12.72 18.4802Z"
            fill="#0D8E45" />
        <path fill-rule="evenodd" clip-rule="evenodd"
            d="M15.76 19.6001C16.7811 21.4305 17.6345 23.3505 18.32 25.3601C17.7942 25.4732 17.2609 25.5265 16.72 25.5201C16.7465 26.3751 16.7198 27.2284 16.64 28.0801C16.1384 28.2879 15.6318 28.2879 15.12 28.0801C14.9608 27.2334 14.9075 26.3801 14.96 25.5201C14.53 25.5463 14.1033 25.5196 13.68 25.4401C13.5507 25.3908 13.444 25.3108 13.36 25.2001C14.206 23.3486 15.006 21.4819 15.76 19.6001Z"
            fill="#1E262E" />
    </g>
    <defs>
        <clipPath id="clip0_4135_255">
            <rect width="32" height="32" fill="white" />
        </clipPath>
    </defs>
</svg>