<svg width="32" height="32" viewBox="0 0 32 32" fill="none" xmlns="http://www.w3.org/2000/svg">
    <g clip-path="url(#clip0_4400_1334)">
        <path opacity="0.995" fill-rule="evenodd" clip-rule="evenodd"
            d="M2.93336 -0.0898438C11.5852 -0.0898438 20.237 -0.0898438 28.8889 -0.0898438C30.2663 0.635534 31.2738 1.7022 31.9111 3.11016C31.9111 11.6435 31.9111 20.1768 31.9111 28.7102C31.2738 30.1182 30.2663 31.1848 28.8889 31.9102C20.237 31.9102 11.5852 31.9102 2.93336 31.9102C1.5559 31.1848 0.548489 30.1182 -0.0888672 28.7102C-0.0888672 20.1768 -0.0888672 11.6435 -0.0888672 3.11016C0.548489 1.7022 1.5559 0.635534 2.93336 -0.0898438Z"
            fill="#002470" />
        <path fill-rule="evenodd" clip-rule="evenodd"
            d="M9.15532 6.66724C12.1851 6.59429 15.2073 6.68318 18.222 6.9339C21.1813 8.17644 22.8702 10.3987 23.2887 13.6006C23.6154 16.4401 23.0821 19.1067 21.6887 21.6006C20.3902 23.5506 18.5829 24.7062 16.2664 25.0672C13.8368 25.1858 11.4072 25.1858 8.97754 25.0672C9.06643 24.9783 9.15532 24.8895 9.24421 24.8006C9.38869 18.751 9.35905 12.7065 9.15532 6.66724Z"
            fill="#F8F9FB" />
        <path fill-rule="evenodd" clip-rule="evenodd"
            d="M15.1999 7.91016C17.3582 8.11348 18.7804 9.2394 19.4666 11.2879C19.4506 11.7594 19.569 12.1742 19.8221 12.5324C20.2015 15.2434 19.994 17.91 19.1999 20.5324C18.3679 22.297 16.9754 23.2451 15.0221 23.3768C14.1332 23.3768 13.2444 23.3768 12.3555 23.3768C12.3555 18.2213 12.3555 13.0657 12.3555 7.91016C13.3036 7.91016 14.2518 7.91016 15.1999 7.91016Z"
            fill="#012470" />
        <path fill-rule="evenodd" clip-rule="evenodd"
            d="M15.2 7.91178C14.2518 7.91178 13.3037 7.91178 12.3555 7.91178C12.3555 13.0673 12.3555 18.2229 12.3555 23.3785C13.2444 23.3785 14.1333 23.3785 15.0222 23.3785C14.1083 23.5541 13.1602 23.6133 12.1777 23.5562C12.1777 18.2821 12.1777 13.0081 12.1777 7.73401C13.2192 7.67673 14.2266 7.73598 15.2 7.91178Z"
            fill="#687EAA" />
        <path fill-rule="evenodd" clip-rule="evenodd"
            d="M19.4668 11.2891C19.7199 11.6472 19.8383 12.062 19.8223 12.5335C19.5692 12.1754 19.4508 11.7606 19.4668 11.2891Z"
            fill="#4F6199" />
    </g>
    <defs>
        <clipPath id="clip0_4400_1334">
            <rect width="32" height="32" fill="white" />
        </clipPath>
    </defs>
</svg>