<svg width="110" height="110" viewBox="0 0 110 110" fill="none" xmlns="http://www.w3.org/2000/svg">
<path d="M92.43 21.09L88.84 21.13C87.86 21.14 86.42 21.7 84.53 22.8C82.62 23.9 81.13 25.03 80.09 26.17L44.82 64.2L78.07 0L64.08 0.140003L26.32 73.06C22.92 79.62 21.1 84.63 20.85 88.08L0 109.41L9.63 108.6L23.74 94.02C25.03 94.68 26.71 95.01 28.87 95L54.41 94.74C59.78 94.69 64.5 92.75 68.54 88.95C72.1 85.65 75.88 80.18 79.85 72.51L98.13 37.22C103.75 26.38 101.85 21.01 92.43 21.09ZM83.36 38.9L65.13 74.06C63.06 78.06 60.81 80.74 58.39 82.08C56.57 83.12 54.04 83.65 50.8 83.68L44 83.75C40.76 83.78 38.74 83.25 37.96 82.14L79.89 36.82C81.11 35.46 82.18 34.79 83.09 34.77C84.69 34.76 84.77 36.14 83.36 38.9Z" fill="#024B9E"/>
</svg>
