<svg width="32" height="32" viewBox="0 0 32 32" fill="none" xmlns="http://www.w3.org/2000/svg">
    <path opacity="0.999" fill-rule="evenodd" clip-rule="evenodd"
        d="M15.3924 0.0849415C17.902 -0.303578 19.6798 0.640707 20.7257 2.91779C22.1231 1.03357 23.9458 0.471491 26.1941 1.23157C27.9444 2.07483 28.8895 3.46878 29.0295 5.4134C29.0315 8.46107 28.379 11.3613 27.0717 14.1143C27.0604 15.0568 27.0828 16.0011 27.1392 16.9472C27.1353 17.807 27.0678 18.6613 26.9367 19.5102C26.431 21.1927 25.891 22.8564 25.3164 24.5014C24.9839 24.9689 24.6014 25.3959 24.1688 25.783C22.5258 26.8062 20.8606 27.7954 19.173 28.7507C17.9709 31.5546 15.9006 32.5438 12.962 31.7185C11.2127 30.8776 10.2675 29.4838 10.1266 27.5366C10.3056 26.4156 10.6207 25.3365 11.0717 24.2991C8.40854 25.5821 6.2257 25.0201 4.52319 22.6129C3.5854 20.4224 3.96797 18.5113 5.67087 16.8797C6.51661 16.4386 7.32674 15.9441 8.10125 15.3958C7.85947 15.0702 7.63443 14.733 7.42614 14.3841C4.81134 13.9975 3.37112 12.4912 3.10547 9.86503C3.48252 6.66332 5.28281 5.17945 8.50631 5.4134C8.91744 5.53677 9.3225 5.62669 9.7215 5.6832C10.3747 5.15412 11.0948 4.72694 11.8818 4.40167C12.021 3.02164 12.6062 1.87501 13.6371 0.961777C14.1984 0.591456 14.7834 0.299173 15.3924 0.0849415Z"
        fill="#323232" />
    <path fill-rule="evenodd" clip-rule="evenodd"
        d="M19.8482 6.55992C16.1753 8.7313 12.5298 10.9347 8.91146 13.1699C8.74459 12.8851 8.54206 12.6153 8.30387 12.3605C6.32307 12.6535 5.2204 11.7991 4.99585 9.79747C5.09551 8.14659 5.97315 7.29224 7.62876 7.23441C7.92131 7.2569 8.21385 7.27937 8.5064 7.30186C8.9862 7.58378 9.43626 7.85358 9.85661 8.11125C10.9819 6.83413 12.3772 5.95729 14.0423 5.48074C13.5363 3.84176 14.0764 2.65017 15.6625 1.90595C17.4236 1.62052 18.5938 2.31748 19.1731 3.99686C19.1281 4.04182 19.083 4.0868 19.038 4.13176C18.0371 3.74587 17.0019 3.63345 15.9326 3.79452C15.5357 4.33654 15.5808 4.83117 16.0676 5.27839C17.48 5.32145 18.7402 5.74863 19.8482 6.55992Z"
        fill="#CA2254" />
    <path fill-rule="evenodd" clip-rule="evenodd"
        d="M23.6287 2.78279C25.3008 2.48227 26.4485 3.11179 27.0717 4.67136C27.2103 7.03017 26.8951 9.32343 26.1266 11.5511C25.147 9.2325 23.7067 7.254 21.8059 5.61564C21.8027 4.27205 22.4103 3.32777 23.6287 2.78279Z"
        fill="#EB6522" />
    <path fill-rule="evenodd" clip-rule="evenodd"
        d="M19.8481 6.55957C20.8083 7.04369 21.6409 7.71818 22.346 8.58304C22.9924 9.43091 23.555 10.3302 24.0338 11.281C23.7897 11.2798 23.5646 11.3472 23.3587 11.4833C22.9278 11.8106 22.4777 12.1029 22.0085 12.3602C21.2309 11.528 20.2857 11.3256 19.173 11.7531C17.8026 12.2891 16.9473 13.2559 16.6076 14.6534C16.6308 14.9297 16.6758 15.1995 16.7426 15.4628C13.2773 17.6439 9.7668 19.7573 6.211 21.803C5.51161 20.3221 5.82667 19.0855 7.15614 18.0933C7.96627 17.6437 8.7764 17.194 9.58652 16.7444C9.94972 16.5153 10.2648 16.2455 10.5317 15.935C10.0064 14.9969 9.46631 14.075 8.91142 13.1696C12.5297 10.9343 16.1753 8.73095 19.8481 6.55957Z"
        fill="#EC6522" />
    <path fill-rule="evenodd" clip-rule="evenodd"
        d="M19.308 8.44814C20.1849 8.3037 20.8151 8.61846 21.1983 9.39242C20.7698 9.60314 20.3197 9.80549 19.8481 9.99946C18.8253 11.2319 18.3527 11.0295 18.4303 9.39242C18.6591 9.00694 18.9517 8.69217 19.308 8.44814Z"
        fill="#383432" />
    <path fill-rule="evenodd" clip-rule="evenodd"
        d="M24.0337 11.2813C24.819 12.801 25.2241 14.4198 25.2489 16.1376C21.2883 18.5208 17.3276 20.9039 13.3671 23.2872C13.5003 22.4366 13.5227 21.5823 13.4346 20.7241C13.0804 19.8488 12.5403 19.7139 11.8143 20.3194C11.7864 20.8036 11.7189 21.2757 11.6118 21.7358C10.7725 22.3039 9.87236 22.7536 8.91136 23.0848C7.75185 23.2026 6.85171 22.7754 6.21094 21.8033C9.76675 19.7576 13.2773 17.6441 16.7426 15.4631C17.4265 16.0939 18.2366 16.2962 19.173 16.0701C21.1942 15.6074 22.1394 14.3708 22.0084 12.3604C22.4776 12.1032 22.9278 11.8109 23.3586 11.4836C23.5645 11.3475 23.7896 11.2801 24.0337 11.2813Z"
        fill="#ECA903" />
    <path fill-rule="evenodd" clip-rule="evenodd"
        d="M22.0085 12.3608C22.1395 14.3712 21.1943 15.6078 19.1731 16.0705C18.2367 16.2966 17.4266 16.0942 16.7427 15.4634C16.6759 15.2001 16.6309 14.9303 16.6077 14.654C16.9474 13.2565 17.8026 12.2897 19.1731 11.7537C20.2858 11.3263 21.2309 11.5286 22.0085 12.3608Z"
        fill="#FDFBF9" />
    <path fill-rule="evenodd" clip-rule="evenodd"
        d="M13.9071 11.6859C14.8324 11.6236 15.4175 12.0283 15.6624 12.9C14.7815 12.9349 14.1064 13.3171 13.6371 14.0466C13.1996 14.1063 12.9521 13.9039 12.8945 13.4396C12.8291 13.1141 12.8742 12.7994 13.0295 12.4953C13.3081 12.194 13.6005 11.9242 13.9071 11.6859Z"
        fill="#393432" />
    <path fill-rule="evenodd" clip-rule="evenodd"
        d="M19.443 11.9561C20.0945 11.9544 20.387 12.2692 20.3207 12.9003C19.8313 13.8688 19.1113 14.0937 18.1603 13.5748C18.0703 13.35 18.0703 13.1252 18.1603 12.9003C18.585 12.5663 19.0126 12.2515 19.443 11.9561Z"
        fill="#393939" />
    <path fill-rule="evenodd" clip-rule="evenodd"
        d="M25.2488 16.1377C25.4151 17.0198 25.3925 17.919 25.1813 18.8357C24.7537 20.4346 24.2586 22.0083 23.6961 23.5571C23.542 23.8416 23.3395 24.0888 23.0885 24.299C21.997 24.9002 20.9392 25.5523 19.9155 26.255C19.8255 26.0752 19.8255 25.8953 19.9155 25.7154C20.2166 25.1135 20.4417 24.4841 20.5906 23.8269C21.3047 23.3385 21.9798 22.7989 22.6159 22.2081C22.7959 21.4886 22.5259 21.0389 21.8058 20.8591C20.8959 21.4508 19.9957 22.0803 19.1054 22.7477C18.4752 24.6363 17.8452 26.5248 17.2151 28.4134C16.535 29.8884 15.3873 30.4505 13.7721 30.0996C12.4752 29.3745 11.9127 28.2728 12.0843 26.7946C12.5123 25.6222 12.9399 24.4532 13.367 23.2873C17.3276 20.904 21.2883 18.5209 25.2488 16.1377Z"
        fill="#1497FC" />
</svg>