<svg width="32" height="32" viewBox="0 0 32 32" fill="none" xmlns="http://www.w3.org/2000/svg">
<g clip-path="url(#clip0_6238_12)">
<path d="M0 0C10.56 0 21.12 0 32 0C32 10.56 32 21.12 32 32C21.44 32 10.88 32 0 32C0 21.44 0 10.88 0 0Z" fill="black"/>
<path d="M9.02222 7.02222C17.3054 7.02222 17.3054 7.02222 18.0694 7.23333C18.1346 7.25101 18.1346 7.25101 18.2011 7.26906C19.3446 7.58655 20.3345 8.11524 21.2 8.93333C21.236 8.9665 21.2721 8.99967 21.3092 9.03385C22.1228 9.80901 22.6448 10.8336 22.9333 11.9111C22.9418 11.9427 22.9503 11.9743 22.959 12.0068C23.3575 13.5954 22.9915 15.2792 22.1875 16.6703C21.2491 18.1952 19.7147 19.2108 17.985 19.6258C17.0382 19.8369 16.101 19.8387 15.1361 19.8305C14.6732 19.8278 14.2103 19.825 13.7333 19.8222C13.7333 21.5235 13.7333 23.2249 13.7333 24.9778C12.1787 24.9778 10.624 24.9778 9.02222 24.9778C9.02222 19.0524 9.02222 13.1271 9.02222 7.02222Z" fill="#A3DAE7"/>
<path d="M13.7333 9.8222C14.98 9.8222 16.2267 9.8222 17.5111 9.8222C17.5111 10.1155 17.5111 10.4089 17.5111 10.7111C17.8191 10.7111 18.1271 10.7111 18.4444 10.7111C18.4444 11.0191 18.4444 11.3271 18.4444 11.6444C17.5204 11.6444 16.5964 11.6444 15.6444 11.6444C15.6444 11.9378 15.6444 12.2311 15.6444 12.5333C15.9524 12.5333 16.2604 12.5333 16.5778 12.5333C16.5778 12.8266 16.5778 13.12 16.5778 13.4222C16.8858 13.4222 17.1938 13.4222 17.5111 13.4222C17.5111 13.7155 17.5111 14.0089 17.5111 14.3111C17.8191 14.3111 18.1271 14.3111 18.4444 14.3111C18.4444 14.8978 18.4444 15.4844 18.4444 16.0889C18.1364 16.0889 17.8284 16.0889 17.5111 16.0889C17.5111 16.3969 17.5111 16.7049 17.5111 17.0222C16.2644 17.0222 15.0178 17.0222 13.7333 17.0222C13.7333 16.7142 13.7333 16.4062 13.7333 16.0889C13.4107 16.0889 13.088 16.0889 12.7556 16.0889C12.7556 15.7955 12.7556 15.5022 12.7556 15.2C13.6942 15.2 14.6329 15.2 15.6 15.2C15.6 14.9066 15.6 14.6133 15.6 14.3111C15.292 14.3111 14.984 14.3111 14.6667 14.3111C14.6667 14.0178 14.6667 13.7244 14.6667 13.4222C14.3587 13.4222 14.0507 13.4222 13.7333 13.4222C13.7333 13.1289 13.7333 12.8355 13.7333 12.5333C13.4253 12.5333 13.1173 12.5333 12.8 12.5333C12.8 11.932 12.8 11.3306 12.8 10.7111C13.108 10.7111 13.416 10.7111 13.7333 10.7111C13.7333 10.4178 13.7333 10.1244 13.7333 9.8222Z" fill="black"/>
</g>
<defs>
<clipPath id="clip0_6238_12">
<rect width="32" height="32" fill="white"/>
</clipPath>
</defs>
</svg>
