<svg width="32" height="32" viewBox="0 0 32 32" fill="none" xmlns="http://www.w3.org/2000/svg">
    <g clip-path="url(#clip0_3032_3282)">
        <path fill-rule="evenodd" clip-rule="evenodd"
            d="M-0.0737305 -0.0683594C5.13671 -0.0683594 10.3472 -0.0683594 15.5576 -0.0683594C12.7651 1.46822 9.96322 3.00845 7.15208 4.55233C12.4242 7.44331 17.7084 10.3169 23.0046 13.173C23.0537 18.9202 23.103 24.6672 23.1521 30.4144C25.819 28.9487 28.498 27.5005 31.1889 26.0696C31.4694 25.831 31.7152 25.5781 31.9263 25.311C31.9263 27.5178 31.9263 29.7247 31.9263 31.9316C25.1429 31.9316 18.3594 31.9316 11.576 31.9316C14.1842 30.5158 16.7648 29.0446 19.318 27.5178C19.4163 23.3799 19.4163 19.242 19.318 15.1041C15.8646 13.1786 12.3992 11.2706 8.92166 9.37992C8.47242 9.08005 7.98086 8.9881 7.44701 9.10405C4.96496 10.4256 2.50719 11.7819 0.073735 13.173C3.81164 15.2646 7.57201 17.3336 11.3548 19.3799C11.4286 23.5636 11.4531 27.7475 11.4286 31.9316C7.59447 31.9316 3.76037 31.9316 -0.0737305 31.9316C-0.0737305 29.8627 -0.0737305 27.7937 -0.0737305 25.7247C2.57261 27.1187 5.20242 28.5439 7.81567 30.0006C7.93852 27.1489 7.91394 24.2984 7.74194 21.4489C5.15259 22.8664 2.54736 24.2457 -0.0737305 25.5868C-0.0737305 17.0351 -0.0737305 8.48336 -0.0737305 -0.0683594Z"
            fill="#FDFEFD" />
        <path fill-rule="evenodd" clip-rule="evenodd"
            d="M16.2949 -0.0683594C21.5053 -0.0683594 26.7159 -0.0683594 31.9263 -0.0683594C31.9263 2.73623 31.9263 5.54084 31.9263 8.34543C26.6665 5.61008 21.4561 2.80549 16.2949 -0.0683594Z"
            fill="#FEFEFE" />
        <path fill-rule="evenodd" clip-rule="evenodd"
            d="M15.5576 -0.0683594C15.8035 -0.0683594 16.0491 -0.0683594 16.295 -0.0683594C21.4561 2.80549 26.6665 5.61008 31.9263 8.34543C31.9263 14.0006 31.9263 19.6558 31.9263 25.311C31.7153 25.5781 31.4694 25.831 31.189 26.0696C28.498 27.5005 25.819 28.9487 23.1521 30.4144C23.103 24.6672 23.0537 18.9202 23.0046 13.173C17.7084 10.3169 12.4242 7.44331 7.1521 4.55233C9.96325 3.00845 12.7651 1.46822 15.5576 -0.0683594Z"
            fill="#5CE503" />
        <path fill-rule="evenodd" clip-rule="evenodd"
            d="M11.576 31.9308C11.5269 31.9308 11.4777 31.9308 11.4286 31.9308C11.4531 27.7466 11.4286 23.5628 11.3548 19.3791C7.57201 17.3327 3.81164 15.2637 0.0737305 13.1722C2.50719 11.7811 4.96495 10.4248 7.447 9.10319C7.98086 8.98723 8.47242 9.07919 8.92166 9.37905C12.3992 11.2697 15.8646 13.1778 19.318 15.1032C19.4163 19.2411 19.4163 23.3791 19.318 27.517C16.7648 29.0437 14.1842 30.5149 11.576 31.9308Z"
            fill="#5CE505" />
        <path fill-rule="evenodd" clip-rule="evenodd"
            d="M-0.0737305 25.7251C-0.0737305 25.6791 -0.0737305 25.6331 -0.0737305 25.5871C2.54736 24.246 5.15259 22.8667 7.74194 21.4492C7.91394 24.2987 7.93852 27.1492 7.81567 30.0009C5.20242 28.5443 2.57261 27.119 -0.0737305 25.7251Z"
            fill="#5CE405" />
    </g>
    <defs>
        <clipPath id="clip0_3032_3282">
            <rect width="32" height="32" fill="white" />
        </clipPath>
    </defs>
</svg>