<svg width="32" height="32" viewBox="0 0 32 32" fill="none" xmlns="http://www.w3.org/2000/svg">
    <path
        d="M25.9656 7.81714C25.7462 7.63429 25.4993 7.41486 24.8228 7.24114V7.232C25.7919 4.74514 25.1245 3.75771 24.1919 2.98057C23.5153 2.41371 22.3359 2.304 21.4125 2.51429C20.4159 0.667428 18.1485 0.0182857 15.9999 0C13.8513 0.0182857 11.5839 0.667428 10.5782 2.50514C9.65475 2.29486 8.47533 2.41371 7.79876 2.97143C6.86618 3.74857 6.19876 4.736 7.1679 7.22286V7.232C6.49133 7.40571 6.25361 7.63429 6.03418 7.81714C5.54961 8.192 5.13818 8.77714 5.13818 9.64571C5.1839 11.0263 6.28104 21.4949 6.28104 21.4949C6.28104 21.5223 6.30847 21.5497 6.3359 21.5497C6.35418 21.5497 6.36333 21.5406 6.37247 21.5314L7.3599 20.608V22.0983C7.3599 22.1349 7.38733 22.1531 7.41475 22.1531C7.4239 22.1531 7.44218 22.1531 7.45133 22.1349L9.12447 20.6903V21.5589C9.12447 21.5954 9.1519 21.6137 9.17933 21.6137C9.19761 21.6137 9.20676 21.6046 9.2159 21.5954L10.1576 20.6903L10.8068 20.0686C10.8433 23.4057 10.7153 27.4651 10.1393 31.2411C10.0479 31.8537 10.3862 32 10.6879 32C10.8525 32 10.9988 31.9543 11.0719 31.9177C11.9953 31.4331 12.7633 29.504 13.2662 27.3554C13.6868 25.5726 14.153 23.2503 14.5919 20.4251C14.793 20.5257 15.3873 20.7086 15.9816 20.7086C16.5759 20.7086 17.161 20.5257 17.3713 20.4251C17.801 23.2411 18.2765 25.5634 18.697 27.3554C19.1999 29.504 19.9679 31.4331 20.8913 31.9177C20.9645 31.9543 21.1199 32 21.2753 32C21.577 32 21.9245 31.8537 21.8239 31.2411C21.2479 27.4743 21.1199 23.4149 21.1565 20.0686L21.8056 20.6903L22.7473 21.5954C22.7565 21.6046 22.7748 21.6137 22.7839 21.6137C22.8113 21.6137 22.8388 21.5863 22.8388 21.5589V20.6903L24.5119 22.1349C24.521 22.144 24.5393 22.1531 24.5485 22.1531C24.5759 22.1531 24.6033 22.1257 24.6033 22.0983V20.608L25.5908 21.5314C25.5999 21.5406 25.6182 21.5497 25.6273 21.5497C25.6548 21.5497 25.6822 21.5314 25.6822 21.4949C25.6822 21.4949 26.7793 11.0354 26.825 9.64571C26.8616 8.77714 26.4502 8.192 25.9656 7.81714Z"
        fill="#564740" />
    <path
        d="M16.3383 15.3513L16 15.0312L15.6617 15.3513V15.3604L15.2686 15.7535C15.4971 15.9913 15.744 16.1193 16 16.1193C16.256 16.1193 16.5028 15.9913 16.7314 15.7535L16.3383 15.3513Z"
        fill="#483A34" />
    <path d="M17.0787 16.4482H14.921L14.8296 17.1614H17.1702L17.0787 16.4482Z" fill="#AAD9BD" />
    <path
        d="M14.5279 16.4941C14.5279 16.4941 14.2445 18.5696 14.1439 19.2919C13.3211 24.8964 12.1599 30.7844 10.8251 31.3604C10.7245 31.4061 10.6331 31.3147 10.6422 31.2141C10.8068 30.3273 11.1817 27.9867 11.3005 25.893C11.3919 24.3387 11.4285 21.5227 11.4377 18.6153L12.2422 17.8473C12.3062 17.7833 12.4068 17.8107 12.4068 17.9113V18.6336L14.5279 16.4941Z"
        fill="#F6E3D6" />
    <path
        d="M12.3976 18.642V17.9197C12.3976 17.8191 12.2971 17.7917 12.2331 17.8557L11.7302 18.3311C11.7211 18.578 11.6114 22.994 11.6114 23.9083C11.6114 26.45 10.9531 30.4363 11.0171 30.4363C11.5931 30.4363 12.3976 21.7963 12.6628 18.3586L12.3976 18.642Z"
        fill="#FAF1EA" />
    <path
        d="M17.4722 16.4941C17.4722 16.4941 17.7556 18.5696 17.8562 19.2919C18.679 24.8964 19.8402 30.7844 21.175 31.3604C21.2756 31.4061 21.367 31.3147 21.3579 31.2141C21.1933 30.3273 20.8185 27.9867 20.6996 25.893C20.6082 24.3387 20.5716 21.5227 20.5625 18.6153L19.7579 17.8473C19.6939 17.7833 19.5933 17.8107 19.5933 17.9113V18.6336L17.4722 16.4941Z"
        fill="#F6E3D6" />
    <path
        d="M24.3747 7.60659C23.9084 7.53345 22.4821 7.55173 22.4639 7.55173L24.2467 7.1403C25.609 4.24202 23.5244 2.86145 22.2627 2.86145C21.833 2.86145 20.7084 3.01688 20.5804 3.01688C20.5804 3.01688 20.7907 2.98945 20.8456 2.93459C20.8456 2.39516 19.337 0.612305 15.9999 0.612305C12.6719 0.612305 11.1541 2.39516 11.1541 2.93459C11.209 2.98945 11.4193 3.01688 11.4193 3.01688C11.2913 3.01688 10.1667 2.86145 9.73699 2.86145C8.48442 2.86145 6.39071 4.23288 7.75299 7.1403L9.53585 7.55173C9.52671 7.55173 8.09128 7.54259 7.62499 7.60659C6.98499 7.70716 5.73242 8.39288 5.73242 9.60888C5.73242 10.1757 5.97014 11.8489 5.97014 11.8489H26.0204C26.0204 11.8489 26.2581 10.1757 26.2581 9.60888C26.2673 8.39288 25.0147 7.70716 24.3747 7.60659Z"
        fill="#63C199" />
    <path
        d="M23.5795 3.96789C23.2778 3.74846 22.8755 3.65703 22.3361 3.65703C22.3361 3.65703 22.0983 3.66618 21.9612 3.68446C20.6721 3.84903 20.2149 4.54389 18.9715 4.54389C18.3406 4.54389 18.6789 3.04446 18.6789 3.04446C18.6789 3.04446 20.2698 3.08103 20.2698 2.97132C20.2698 2.48675 18.3955 1.08789 16.1281 1.08789H15.8538C13.5863 1.08789 11.7121 2.48675 11.7121 2.97132C11.7121 3.08103 13.3029 3.04446 13.3029 3.04446C13.3029 3.04446 13.6503 4.54389 13.0103 4.54389C11.7669 4.54389 11.3098 3.84903 10.0206 3.68446C9.88349 3.66618 9.64577 3.65703 9.64577 3.65703C9.10634 3.65703 8.70406 3.74846 8.40234 3.96789C7.98177 4.27875 7.12234 5.43989 8.62177 7.35075L9.51777 7.55189H22.4458L23.3418 7.35075C24.8595 5.43075 24.0001 4.26961 23.5795 3.96789Z"
        fill="#C5E4D0" />
    <path
        d="M9.8376 4.90039C9.74617 4.90039 9.66388 4.92782 9.59074 4.98268C9.61817 5.01011 9.62731 5.03753 9.62731 5.07411C9.62731 5.14725 9.57246 5.20211 9.49931 5.20211C9.47188 5.20211 9.44446 5.19296 9.41703 5.17468C9.37131 5.25696 9.35303 5.35753 9.35303 5.45811C9.35303 5.76896 9.57246 6.01582 9.84674 6.01582C10.121 6.01582 10.3405 5.76896 10.3405 5.45811C10.3313 5.14725 10.1119 4.90039 9.8376 4.90039Z"
        fill="#483A34" />
    <path
        d="M9.73715 5.07463C9.73715 5.01063 9.70972 4.94663 9.664 4.91006C9.61829 4.86434 9.56343 4.83691 9.49943 4.83691C9.37143 4.83691 9.26172 4.94663 9.26172 5.07463C9.26172 5.14777 9.29829 5.22091 9.35315 5.26663C9.38972 5.29406 9.44458 5.31234 9.49943 5.31234C9.62743 5.31234 9.73715 5.20263 9.73715 5.07463Z"
        fill="#FBF8F5" />
    <path d="M15.6069 8.60353L15.04 8.07324L15.616 8.61267L15.6069 8.60353Z" fill="#564740" />
    <path d="M11.7392 18.3223L11.4375 18.6148L11.7392 18.3223Z" fill="#A8E1C2" />
    <path d="M12.233 17.8467L11.7393 18.3221L12.233 17.8467Z" fill="#A8E1C2" />
    <path d="M15.6436 8.63973L15.8814 8.85916L15.6162 8.6123L15.6436 8.63973Z" fill="#564740" />
    <path
        d="M22.3361 4.90039C22.2447 4.90039 22.1624 4.92782 22.0893 4.98268C22.1167 5.01011 22.1258 5.03753 22.1258 5.07411C22.1258 5.14725 22.071 5.20211 21.9978 5.20211C21.9704 5.20211 21.943 5.19296 21.9156 5.17468C21.8698 5.25696 21.8516 5.35753 21.8516 5.45811C21.8516 5.76896 22.071 6.01582 22.3453 6.01582C22.6196 6.01582 22.839 5.76896 22.839 5.45811C22.8298 5.14725 22.6104 4.90039 22.3361 4.90039Z"
        fill="#483A34" />
    <path
        d="M22.2352 5.07463C22.2352 5.01063 22.2078 4.94663 22.1621 4.91006C22.1163 4.86434 22.0615 4.83691 21.9975 4.83691C21.8695 4.83691 21.7598 4.94663 21.7598 5.07463C21.7598 5.14777 21.7963 5.22091 21.8512 5.26663C21.8878 5.29406 21.9426 5.31234 21.9975 5.31234C22.1255 5.31234 22.2352 5.20263 22.2352 5.07463Z"
        fill="#FBF8F5" />
    <path d="M16.3929 8.60353L16.9598 8.07324L16.3838 8.61267L16.3929 8.60353Z" fill="#564740" />
    <path
        d="M19.6021 18.642V17.9197C19.6021 17.8191 19.7026 17.7917 19.7666 17.8557L20.2695 18.3311C20.2786 18.578 20.3883 22.994 20.3883 23.9083C20.3883 26.45 21.0466 30.4363 20.9826 30.4363C20.4066 30.4363 19.6021 21.7963 19.3369 18.3586L19.6021 18.642Z"
        fill="#FAF1EA" />
    <path d="M20.2607 18.3223L20.5625 18.6148L20.2607 18.3223Z" fill="#A8E1C2" />
    <path d="M19.7671 17.8467L20.2608 18.3221L19.7671 17.8467Z" fill="#A8E1C2" />
    <path d="M16.3564 8.63973L16.1187 8.85916L16.3838 8.6123L16.3564 8.63973Z" fill="#564740" />
    <path
        d="M22.7565 9.29838C20.7908 8.4481 17.8559 8.14639 16.9599 8.07324L16.3839 8.61267L16.3565 8.6401L16.1188 8.85953C16.0914 8.88696 16.0456 8.90524 15.9999 8.90524C15.9542 8.90524 15.9176 8.88696 15.8811 8.85953L15.6434 8.6401L15.6159 8.61267L15.0399 8.07324C14.1439 8.14639 11.2091 8.4481 9.24336 9.29838C7.13136 10.2127 5.97021 11.9224 5.97021 11.8492L6.07079 12.9372V12.9281C9.24336 9.29838 15.6525 15.3418 15.6525 15.3418L15.9908 15.0218L16.3291 15.3418C16.3291 15.3418 22.7382 9.29838 25.9108 12.9281V12.9372L26.0114 11.8492C26.0296 11.9224 24.8685 10.2127 22.7565 9.29838Z"
        fill="#AAD9BD" />
    <path
        d="M15.6618 15.3509L15.2321 10.9258C14.7749 11.5201 13.9521 12.0504 12.5989 12.0504C10.4961 12.0504 9.25265 9.29835 6.08008 12.9281L6.72922 19.9772L6.77494 20.3155L7.67094 19.4012L7.78065 13.2481L7.91779 13.1566L7.96351 20.8732L9.02408 19.9589L9.50865 19.5384C9.54522 17.7372 9.60008 14.6378 9.60008 14.6378L9.74636 14.5372L9.77379 20.2241L10.6424 19.3921L10.6972 19.3372L11.2184 18.8344C11.2458 17.3715 11.2732 15.9818 11.2732 15.9818L11.4195 15.8538L11.4378 18.6332L11.7395 18.3406L12.2424 17.8652C12.2698 17.8378 12.2972 17.8286 12.3246 17.8286C12.3704 17.8286 12.4069 17.8652 12.4069 17.9292V18.6515L15.6618 15.3509Z"
        fill="#C5E4D0" />
    <path
        d="M18.4413 6.94895C18.4139 6.93981 18.3864 6.93066 18.359 6.93066H13.6413C13.6139 6.93066 13.5773 6.93981 13.559 6.94895C13.495 6.98552 13.4584 7.05866 13.495 7.12266L13.5224 7.15924L15.607 9.11581L15.6161 9.12495L15.8813 9.37181C15.9087 9.39924 15.9544 9.41752 16.0001 9.41752C16.0459 9.41752 16.0824 9.39924 16.119 9.37181L16.3841 9.12495L16.3933 9.11581L18.4779 7.15924C18.487 7.15009 18.4961 7.14095 18.5053 7.12266C18.5419 7.05866 18.5144 6.97638 18.4413 6.94895Z"
        fill="#564740" />
    <path
        d="M16.3384 15.3509L16.7681 10.9258C17.2252 11.5201 18.0481 12.0504 19.4012 12.0504C21.5041 12.0504 22.7475 9.29835 25.9201 12.9281L25.2709 19.9772L25.2252 20.3155L24.3292 19.4012L24.2195 13.2481L24.0824 13.1566L24.0367 20.8732L22.9761 19.9589L22.4915 19.5384C22.455 17.7372 22.4001 14.6378 22.4001 14.6378L22.2538 14.5372L22.2264 20.2241L21.3578 19.3921L21.303 19.3372L20.7818 18.8344C20.7544 17.3715 20.727 15.9818 20.727 15.9818L20.5807 15.8538L20.5624 18.6332L20.2607 18.3406L19.7578 17.8652C19.7304 17.8378 19.703 17.8286 19.6755 17.8286C19.6298 17.8286 19.5932 17.8652 19.5932 17.9292V18.6515L16.3384 15.3509Z"
        fill="#C5E4D0" />
    <path
        d="M24.8226 5.77833C24.8226 5.59548 24.8226 5.42176 24.8135 5.24805V7.23205C24.8226 5.74176 24.8226 5.8149 24.8226 5.77833Z"
        fill="#564740" />
    <path
        d="M12.9648 5.11108C14.0071 5.11108 13.3853 3.40137 13.3853 3.40137C13.3853 3.40137 13.4676 4.10537 12.6631 4.10537C11.1088 4.10537 11.1088 3.56594 9.86535 3.56594C8.84135 3.56594 8.51221 3.89508 8.51221 3.89508C10.8711 3.32822 11.4562 5.11108 12.9648 5.11108Z"
        fill="#AAD9BD" />
    <path
        d="M17.1609 17.0971L16.5941 16.5303C16.3929 16.5577 16.2009 16.5668 15.9998 16.5668C15.7986 16.5668 15.5975 16.5486 15.4055 16.5303L14.8386 17.0971L14.4912 19.6388C14.9118 19.9863 15.4146 20.1326 15.9815 20.1326H16.0181C16.5941 20.1326 17.0878 19.9863 17.5084 19.6388L17.1609 17.0971Z"
        fill="#C5E4D0" />
    <path
        d="M17.0147 16.0367L16.7313 15.7441C16.5027 15.9819 16.2559 16.1099 15.9999 16.1099C15.7439 16.1099 15.497 15.9819 15.2685 15.7441L14.985 16.0367L14.9302 16.4481C14.9942 16.4664 15.049 16.4756 15.113 16.4847C15.4056 16.5396 15.6982 16.567 15.9999 16.567C16.3016 16.567 16.6033 16.5396 16.8867 16.4847C16.9507 16.4756 17.0147 16.4573 17.0696 16.4481L17.0147 16.0367Z"
        fill="#63C199" />
    <path
        d="M19.0352 5.11108C17.9929 5.11108 18.6147 3.40137 18.6147 3.40137C18.6147 3.40137 18.5324 4.10537 19.3369 4.10537C20.8912 4.10537 20.8912 3.56594 22.1347 3.56594C23.1587 3.56594 23.4878 3.89508 23.4878 3.89508C21.1289 3.32822 20.5438 5.11108 19.0352 5.11108Z"
        fill="#AAD9BD" />
</svg>