<svg width="32" height="32" viewBox="0 0 32 32" fill="none" xmlns="http://www.w3.org/2000/svg">
    <path
        d="M16 0C3.55525 0 0 3.55526 0 15.9999C0 28.4448 3.5655 32 16 32C28.4344 32 32 28.4448 32 15.9999C32 3.55526 28.4344 0 16 0Z"
        fill="#2CFF8E" />
    <path d="M10.3943 12.2625H6.65735V15.9994H10.3943V12.2625Z" fill="#141223" />
    <path d="M25.341 8.52612H21.604V12.2631H25.341V8.52612Z" fill="#141223" />
    <path d="M10.3943 16.0002H6.65735V19.7372H10.3943V16.0002Z" fill="#141223" />
    <path d="M10.3943 19.7366H6.65735V23.4737H10.3943V19.7366Z" fill="#141223" />
    <path d="M25.341 12.2625H21.604V15.9994H25.341V12.2625Z" fill="#141223" />
    <path d="M25.341 16.0002H21.604V19.7372H25.341V16.0002Z" fill="#141223" />
    <path d="M25.341 19.7366H21.604V23.4737H25.341V19.7366Z" fill="#141223" />
    <path d="M14.1326 19.7366H10.3956V23.4737H14.1326V19.7366Z" fill="#141223" />
    <path d="M21.6058 19.7366H17.8688V23.4737H21.6058V19.7366Z" fill="#141223" />
    <path d="M17.8677 16.0002H14.1307V19.7372H17.8677V16.0002Z" fill="#141223" />
</svg>